<?xml version="1.0" encoding="UTF-8"?><svg id="Layer_2" xmlns="http://www.w3.org/2000/svg" viewBox="0 0 543.0942 96.0607"><g id="Components"><g id="_1dd44c47-3246-44d4-a133-2d48ece16ada_5"><polygon points="57.972 88.6193 55.3008 83.9941 41.3704 83.9941 48.334 96.0564 62.2644 96.0564 57.972 88.6193" style="fill:#fff;"/><polygon points="46.988 69.6125 33.0161 45.5352 19.0975 45.5352 34.3948 71.9111 48.3223 71.9111 46.988 69.6125" style="fill:#fff;"/><polygon points="69.2276 83.9969 64.0475 92.9669 57.0675 80.9268 43.1376 80.9268 48.3376 71.9268 62.2676 71.9268 69.2276 83.9969" style="fill:#fff;"/><path d="M48.3429,71.8874l-.0206.0237.0206-.0237Z" style="fill:#fff;"/><polygon points="55.2875 59.8468 50.0775 68.8869 34.7776 42.4969 20.7576 42.4969 26.0076 33.3969 39.9376 33.3969 39.9477 33.4069 55.2875 59.8468" style="fill:#fff;"/><polygon points="45.291 0 38.3271 12.0638 86.9019 96.0577 100.8352 96.0577 107.7991 83.994 59.2244 0 45.291 0" style="fill:#fff;"/><polygon points="6.9607 66.3894 0 78.4502 10.2385 96.0607 24.1719 96.0607 31.1327 83.9999 20.8971 66.3894 6.9607 66.3894" style="fill:#fff;"/><polygon points="534.1876 37.3102 535.5138 37.3102 535.5138 40.705 536.475 40.705 536.475 37.3102 537.8074 37.3102 537.8074 36.3916 534.1876 36.3916 534.1876 37.3102" style="fill:#fff;"/><polygon points="541.774 36.3916 540.6485 39.3057 539.4622 36.3916 538.209 36.3916 538.209 40.705 539.1215 40.705 539.1215 37.8821 540.247 40.705 541.0258 40.705 542.1513 37.8456 542.1513 40.705 543.0942 40.705 543.0942 36.3916 541.774 36.3916" style="fill:#fff;"/><path d="M146.6076,25.2169h-12.6l-13.66,44.69h8.6899l2.8301-9.3101h16.8301l2.8699,9.3101h8.6901l-13.65-44.69ZM134.2676,52.7169l5.9501-19.59,6.0399,19.59h-11.99Z" style="fill:#fff;"/><path d="M232.6076,44.9268c-1.1799-3-3-5.33-5.46-6.98-2.46-1.66-5.45-2.49-8.97-2.49-3.3101,0-6.24.75-8.78,2.25-2.55,1.5-4.54,3.61-5.99,6.32-1.45,2.71-2.1801,5.9-2.1801,9.56,0,3.35.7401,6.33,2.2201,8.92,1.48,2.6,3.5299,4.64,6.1499,6.12,2.6201,1.48,5.64,2.22,9.0801,2.22,3.23,0,6.2-.85,8.9199-2.55,2.72-1.7,4.71-4.08,5.97-7.14l-8.4399-2.42c-.62,1.37-1.52,2.41-2.7,3.14-1.1801.72-2.5901,1.08-4.25,1.08-2.6301,0-4.6201-.85-5.97-2.56-1-1.25-1.6201-2.88-1.8901-4.89h23.53c.3601-4.05-.0601-7.58-1.24-10.58ZM210.5475,49.2368c.3301-1.54.8801-2.83,1.6602-3.83,1.3499-1.75,3.47-2.6201,6.3398-2.6201,2.4701,0,4.24.75,5.3301,2.25.71.98,1.1799,2.39,1.4299,4.2h-14.76Z" style="fill:#fff;"/><path d="M266.7505,44.3836c-.3934-1.4792-1.0506-2.902-1.971-4.2676-.921-1.3656-2.2089-2.4934-3.8641-3.3831-1.6555-.8896-3.7972-1.3346-6.4247-1.3346-3.29,0-6.0164.7138-8.1783,2.1415-1.0189.6727-1.9069,1.4529-2.6846,2.3232v-3.4715h-7.5109v33.52h8.5662v-17.0082c0-2.0897.2327-3.7657.6984-5.028.4655-1.2621,1.0601-2.2191,1.7847-2.8709.7238-.6518,1.4999-1.0914,2.3276-1.3193.8274-.2273,1.6035-.3414,2.3278-.3414,1.8003,0,3.1916.4034,4.1745,1.2106.9827.8068,1.6917,1.8108,2.1261,3.0106.4344,1.2003.6931,2.3952.7759,3.5847.0825,1.1901.1243,2.1676.1243,2.933v15.8289h8.5662v-18.8085c0-.5585-.0418-1.4482-.1241-2.6693-.083-1.2205-.3211-2.5707-.7138-4.0502Z" style="fill:#fff;"/><rect x="293.9061" y="25.218" width="8.4421" height="7.4489" style="fill:#fff;"/><rect x="293.9061" y="36.3916" width="8.4421" height="33.52" style="fill:#fff;"/><path d="M336.6476,43.9768c-1.4299-2.66-3.42-4.74-5.98-6.25-2.55-1.5099-5.52-2.27-8.89-2.27-3.3099,0-6.2401.75-8.78,2.24-2.5499,1.49-4.5499,3.56-5.99,6.22-1.4501,2.66-2.1801,5.7401-2.1801,9.23,0,3.46.71,6.52,2.1301,9.18,1.4199,2.66,3.3999,4.74,5.9399,6.25,2.55,1.51,5.51,2.27,8.88,2.27,3.35,0,6.2999-.75,8.86-2.25s4.55-3.58,5.99-6.24c1.4399-2.66,2.1599-5.73,2.1599-9.21,0-3.45-.72-6.51-2.1399-9.17ZM327.8476,60.2169c-1.34,1.83-3.36,2.74-6.0699,2.74-2.63,0-4.62-.88-5.9801-2.65-1.3499-1.77-2.0299-4.16-2.0299-7.16,0-1.94.2899-3.65.86-5.12.5601-1.47,1.4399-2.61,2.62-3.44,1.1801-.83,2.6901-1.2401,4.53-1.2401,2.67,0,4.6801.89,6.0399,2.67,1.3501,1.78,2.03,4.15,2.03,7.13,0,2.88-.6699,5.23-2,7.07Z" style="fill:#fff;"/><path d="M371.2189,44.3836c-.3934-1.4792-1.0506-2.902-1.971-4.2676-.921-1.3656-2.2089-2.4934-3.8641-3.3831-1.6555-.8896-3.7972-1.3346-6.4247-1.3346-3.29,0-6.0164.7138-8.1783,2.1415-1.0189.6727-1.9069,1.4529-2.6846,2.3232v-3.4715h-7.5109v33.52h8.5662v-17.0082c0-2.0897.2327-3.7657.6984-5.028.4655-1.2621,1.0601-2.2191,1.7847-2.8709.7238-.6518,1.4999-1.0914,2.3276-1.3193.8274-.2273,1.6035-.3414,2.3278-.3414,1.8003,0,3.1916.4034,4.1745,1.2106.9827.8068,1.6917,1.8108,2.1261,3.0106.4344,1.2003.6931,2.3952.7759,3.5847.0825,1.1901.1243,2.1676.1243,2.933v15.8289h8.5662v-18.8085c0-.5585-.0418-1.4482-.1241-2.6693-.083-1.2205-.3211-2.5707-.7138-4.0502Z" style="fill:#fff;"/><polygon points="398.7479 54.8895 383.9742 25.218 376.4012 25.218 376.4012 69.9116 384.2846 69.9116 384.2846 43.2197 397.2582 69.9116 400.2379 69.9116 413.2112 43.2197 413.2112 69.9116 421.0948 69.9116 421.0948 25.218 413.5216 25.218 398.7479 54.8895" style="fill:#fff;"/><path d="M454.3376,44.9268c-1.1799-3-3-5.33-5.47-6.98-2.46-1.66-5.45-2.49-8.97-2.49-3.3101,0-6.23.75-8.78,2.25-2.54,1.5-4.54,3.61-5.99,6.32-1.45,2.71-2.1699,5.9-2.1699,9.56,0,3.35.74,6.33,2.22,8.92,1.48,2.6,3.53,4.64,6.1399,6.12,2.6201,1.48,5.6501,2.22,9.0801,2.22,3.23,0,6.2-.85,8.9199-2.55,2.73-1.7,4.72-4.08,5.98-7.14l-8.4399-2.42c-.62,1.37-1.52,2.41-2.7,3.14-1.1801.72-2.6001,1.08-4.26,1.08-2.62,0-4.6101-.85-5.97-2.56-.99-1.25-1.6201-2.88-1.8801-4.89h23.53c.3501-4.05-.0599-7.58-1.24-10.58ZM432.2776,49.2368c.33-1.54.87-2.83,1.65-3.83,1.3599-1.75,3.47-2.6201,6.35-2.6201,2.46,0,4.23.75,5.3199,2.25.71.98,1.1899,2.39,1.4301,4.2h-14.75Z" style="fill:#fff;"/><path d="M480.4376,27.0069v10.47c-2.0901-1.34-4.6101-2.02-7.5701-2.02-3.21,0-6,.77-8.39,2.3-2.37,1.53-4.22,3.63-5.5399,6.29-1.3101,2.65-1.97,5.69-1.97,9.11,0,3.35.6499,6.36,1.95,9.03,1.29,2.67,3.09,4.78,5.4099,6.33,2.3201,1.55,5.02,2.33,8.1001,2.33,3.33,0,6.1099-.78,8.35-2.33.24-.17.48-.35.71-.54v1.9301h7.4501V25.3468l-8.5,1.66ZM480.7476,58.4868c-.5,1.53-1.3099,2.72-2.4401,3.57-1.1199.85-2.6299,1.27-4.51,1.27-1.8199,0-3.3199-.45-4.47-1.36-1.1599-.91-2.02-2.14-2.58-3.6801-.5599-1.54-.84-3.25-.84-5.1299,0-1.8701.29-3.57.87-5.11.58-1.54,1.48-2.77,2.6901-3.69,1.21-.93,2.75-1.39,4.6399-1.39,1.76,0,3.1799.43,4.26,1.28,1.0901.85,1.88,2.03,2.38,3.57.5,1.53.74,3.31.74,5.34,0,2.02-.24,3.8-.74,5.33Z" style="fill:#fff;"/><rect x="493.2853" y="25.218" width="8.4421" height="7.4489" style="fill:#fff;"/><rect x="493.2853" y="36.3916" width="8.4421" height="33.52" style="fill:#fff;"/><path d="M534.0075,45.2669c-.1299-1.24-.52-2.48-1.1799-3.72-1.1799-2.24-2.9199-3.81-5.22-4.72-2.29-.91-4.9199-1.37-7.8799-1.37-4.03,0-7.2202.87-9.5601,2.61-2.3401,1.74-3.9302,3.99-4.78,6.77l7.6399,2.42c.53-1.53,1.48-2.6,2.8201-3.2,1.3501-.6,2.6399-.9,3.8801-.9,2.24,0,3.8298.47,4.7798,1.4.75.73,1.1902,1.79,1.3501,3.17l-4.05.6c-2.1699.32-4.1199.66-5.8298,1.01-1.7202.35-3.2002.75-4.4402,1.21-1.8.66-3.24,1.48-4.3,2.46-1.0698.99-1.8398,2.12-2.3098,3.4-.48,1.29-.72,2.7-.72,4.2599,0,1.86.4299,3.56,1.29,5.1.8599,1.54,2.1199,2.77,3.7898,3.69,1.6602.93,3.7,1.39,6.1001,1.39,2.8899,0,5.29-.5099,7.1799-1.5099,1.49-.79,2.9001-1.98,4.24-3.55v4.1201h7.3801v-20.48c0-1.53-.0601-2.92-.1802-4.16ZM525.7077,56.5468c-.0801,1.21-.3301,2.27-.76,3.18-.23.48-.6602,1.07-1.29,1.77-.6301.71-1.48,1.33-2.55,1.88-1.0601.55-2.3701.82-3.9199.82-.98,0-1.8201-.14-2.52-.43-.7-.29-1.25-.71-1.6301-1.26-.3799-.55-.5698-1.2-.5698-1.97,0-.56.1199-1.06.3499-1.52.24-.45.6201-.87,1.1201-1.26.51-.38,1.1799-.74,2-1.07.73-.27,1.5698-.51,2.52-.74.95-.23,2.2-.48,3.75-.76,1-.18,2.2-.39,3.5898-.62-.02.59-.0498,1.24-.0898,1.98Z" style="fill:#fff;"/><path d="M190.9299,27.0798l-8.4434,1.6456v7.6665h-12.4177v-9.3121l-8.4434,1.6456v7.6665h-5.7113v6.517h5.7113s.0208,16.5901.0629,18.1728c.0394,1.5826.4751,3.139,1.3019,4.6718.9106,1.6351,2.2413,2.8188,3.9894,3.5537,1.7479.7323,3.7347,1.126,5.9579,1.1785,2.2256.0525,4.496-.1391,6.8135-.5748v-7.0129c-1.9868.2677-3.7979.3517-5.4304.2468-1.635-.1024-2.824-.7428-3.5695-1.9239-.3937-.6194-.6062-1.454-.6377-2.4986-.0316-1.0446-.0446-2.2178-.0446-3.5223v-7.6349c0-3.1548-4.8872-4.6561-4.8872-4.6561h17.3049s.0208,16.5901.0629,18.1728c.0394,1.5826.4751,3.139,1.3019,4.6718.9106,1.6351,2.2413,2.8188,3.9894,3.5537,1.7479.7323,3.7347,1.126,5.9579,1.1785,2.2256.0525,4.496-.1391,6.8134-.5748v-7.0129c-1.9868.2677-3.7977.3517-5.4304.2468-1.635-.1024-2.824-.7428-3.5695-1.9239-.3937-.6194-.6062-1.454-.6377-2.4986-.0316-1.0446-.0446-2.2178-.0446-3.5223v-7.6349c0-3.1548-4.8871-4.6561-4.8871-4.6561h14.5692v-6.517h-9.6821v-9.3121Z" style="fill:#fff;"/><path d="M281.1213,27.0798l-8.4434,1.6456v7.6665h-5.7112v6.517h5.7112s.0209,16.5901.0629,18.1728c.0394,1.5826.4751,3.139,1.3018,4.6718.9108,1.6351,2.2414,2.8188,3.9894,3.5537,1.7479.7323,3.7348,1.126,5.9578,1.1785,2.2256.0525,4.496-.1391,6.8135-.5748v-7.0129c-1.9868.2677-3.7977.3517-5.4303.2468-1.6351-.1024-2.824-.7428-3.5695-1.9239-.3937-.6194-.6062-1.454-.6377-2.4986-.0316-1.0446-.0446-2.2178-.0446-3.5223v-7.6349c0-3.1548-4.887-4.6561-4.887-4.6561h14.5692v-6.517h-9.6821v-9.3121Z" style="fill:#fff;"/></g></g></svg>