<?xml version="1.0" encoding="UTF-8"?><svg id="Layer_2" xmlns="http://www.w3.org/2000/svg" viewBox="0 0 543.0982 96.0607"><g id="Components"><g id="_3a514a50-ded1-4e8f-9633-6b72647b18f0_1"><polygon points="57.972 88.6193 55.3008 83.9941 41.3704 83.9941 48.334 96.0564 62.2644 96.0564 57.972 88.6193" style="fill:#F4F6F9;"/><polygon points="46.988 69.6125 33.0161 45.5352 19.0975 45.5352 34.3948 71.9113 48.3236 71.9113 46.988 69.6125" style="fill:#F4F6F9;"/><polygon points="48.3341 71.9288 48.3236 71.9113 48.3341 71.9288 42.5625 81.9248 56.4929 81.9248 63.4744 93.959 69.2312 83.9956 62.2644 71.9288 48.3341 71.9288" style="fill:#F4F6F9;"/><path d="M48.3429,71.8874l-.0193.0239.0193-.0239Z" style="fill:#F4F6F9;"/><polygon points="49.5203 69.8522 55.2919 59.8503 39.9385 33.3975 26.011 33.3975 20.2009 43.4644 34.2113 43.4644 49.5203 69.8522" style="fill:#F4F6F9;"/><polygon points="45.291 0 38.3271 12.0638 86.9019 96.0577 100.8352 96.0577 107.7991 83.994 59.2244 0 45.291 0" style="fill:#F4F6F9;"/><polygon points="6.9607 66.3894 0 78.4502 10.2385 96.0607 24.1719 96.0607 31.1327 83.9999 20.8971 66.3894 6.9607 66.3894" style="fill:#F4F6F9;"/><polygon points="534.1917 37.3102 535.5178 37.3102 535.5178 40.705 536.479 40.705 536.479 37.3102 537.8114 37.3102 537.8114 36.3916 534.1917 36.3916 534.1917 37.3102" style="fill:#F4F6F9;"/><polygon points="541.778 36.3916 540.6525 39.3057 539.4662 36.3916 538.213 36.3916 538.213 40.705 539.1255 40.705 539.1255 37.8821 540.251 40.705 541.0298 40.705 542.1553 37.8456 542.1553 40.705 543.0982 40.705 543.0982 36.3916 541.778 36.3916" style="fill:#F4F6F9;"/><path d="M134.0027,25.218l-13.6562,44.6935h8.6902l2.8301-9.3112h16.8289l2.874,9.3112h8.6904l-13.6561-44.6935h-12.6012ZM134.2627,52.717l5.9536-19.5879,6.046,19.5879h-11.9996Z" style="fill:#F4F6F9;"/><path d="M227.1478,37.9433c-2.4626-1.655-5.4522-2.4829-8.9695-2.4829-3.3108,0-6.2386.7502-8.7835,2.2502-2.5452,1.5004-4.5421,3.6055-5.9902,6.316-1.4487,2.711-2.1727,5.8972-2.1727,9.5596,0,3.3521.7397,6.3265,2.2191,8.9232,1.4792,2.5969,3.5276,4.6351,6.1456,6.1143,2.6172,1.4789,5.6434,2.2191,9.0782,2.2191,3.228,0,6.2022-.8486,8.9232-2.5452,2.7208-1.6962,4.7123-4.076,5.9746-7.1385l-8.4421-2.4208c-.6208,1.3657-1.5207,2.4106-2.7003,3.1347-1.1793.7245-2.5969,1.0862-4.2519,1.0862-2.628,0-4.6198-.8535-5.9749-2.5605-.9915-1.2488-1.6163-2.8809-1.8823-4.8884h23.5308c.3517-4.0551-.062-7.5832-1.2416-10.5836-1.1793-2.9998-3.0004-5.3276-5.4625-6.9834ZM218.5507,42.7852c2.4622,0,4.2366.7502,5.3228,2.2502.7138.986,1.1882,2.3934,1.4329,4.2055h-14.757c.3316-1.5476.8777-2.8315,1.654-3.8331,1.3551-1.7483,3.4709-2.6226,6.3472-2.6226Z" style="fill:#F4F6F9;"/><path d="M266.7505,44.3836c-.3934-1.4792-1.0506-2.902-1.971-4.2676-.921-1.3656-2.2089-2.4934-3.8641-3.3831-1.6555-.8896-3.7972-1.3346-6.4247-1.3346-3.29,0-6.0164.7138-8.1783,2.1415-1.0189.6727-1.9069,1.4529-2.6846,2.3232v-3.4715h-7.5109v33.52h8.5662v-17.0082c0-2.0897.2327-3.7657.6984-5.028.4655-1.2621,1.0601-2.2191,1.7847-2.8709.7238-.6518,1.4999-1.0914,2.3276-1.3193.8274-.2273,1.6035-.3414,2.3278-.3414,1.8003,0,3.1916.4034,4.1745,1.2106.9827.8068,1.6917,1.8108,2.1261,3.0106.4344,1.2003.6931,2.3952.7759,3.5847.0825,1.1901.1243,2.1676.1243,2.933v15.8289h8.5662v-18.8085c0-.5585-.0418-1.4482-.1241-2.6693-.083-1.2205-.3211-2.5707-.7138-4.0502Z" style="fill:#F4F6F9;"/><rect x="293.9061" y="25.218" width="8.4421" height="7.4489" style="fill:#F4F6F9;"/><rect x="293.9061" y="36.3916" width="8.4421" height="33.52" style="fill:#F4F6F9;"/><path d="M330.6691,37.726c-2.5559-1.5099-5.5199-2.2656-8.8922-2.2656-3.3107,0-6.2386.7449-8.7834,2.2346-2.5452,1.4899-4.5421,3.5645-5.9902,6.223-1.4487,2.6592-2.1727,5.7369-2.1727,9.2335,0,3.4559.7087,6.5131,2.126,9.1716,1.4172,2.6589,3.3987,4.7438,5.9436,6.254,2.5452,1.5102,5.5037,2.2657,8.8768,2.2657,3.3521,0,6.3052-.7502,8.8609-2.2501,2.5554-1.5002,4.5518-3.5797,5.9902-6.2386,1.4379-2.6584,2.1571-5.7262,2.1571-9.2026,0-3.4553-.7138-6.5123-2.1415-9.1713-1.4277-2.6587-3.4194-4.7435-5.9746-6.2542ZM327.8446,60.2125c-1.3346,1.8311-3.3574,2.7466-6.0676,2.7466-2.6279,0-4.6197-.8845-5.9749-2.6536-1.3553-1.7691-2.0328-4.1538-2.0328-7.1542,0-1.9446.2842-3.6516.8535-5.121.5687-1.4689,1.4433-2.6172,2.6226-3.4451,1.1796-.8274,2.6897-1.2416,4.5316-1.2416,2.6693,0,4.6813.8899,6.0366,2.6692,1.3549,1.7798,2.0331,4.1589,2.0331,7.1385,0,2.8763-.6675,5.2298-2.0021,7.0611Z" style="fill:#F4F6F9;"/><path d="M371.2189,44.3836c-.3934-1.4792-1.0506-2.902-1.971-4.2676-.921-1.3656-2.2089-2.4934-3.8641-3.3831-1.6555-.8896-3.7972-1.3346-6.4247-1.3346-3.29,0-6.0164.7138-8.1783,2.1415-1.0189.6727-1.9069,1.4529-2.6846,2.3232v-3.4715h-7.5109v33.52h8.5662v-17.0082c0-2.0897.2327-3.7657.6984-5.028.4655-1.2621,1.0601-2.2191,1.7847-2.8709.7238-.6518,1.4999-1.0914,2.3276-1.3193.8274-.2273,1.6035-.3414,2.3278-.3414,1.8003,0,3.1916.4034,4.1745,1.2106.9827.8068,1.6917,1.8108,2.1261,3.0106.4344,1.2003.6931,2.3952.7759,3.5847.0825,1.1901.1243,2.1676.1243,2.933v15.8289h8.5662v-18.8085c0-.5585-.0418-1.4482-.1241-2.6693-.083-1.2205-.3211-2.5707-.7138-4.0502Z" style="fill:#F4F6F9;"/><polygon points="398.7479 54.8895 383.9742 25.218 376.4012 25.218 376.4012 69.9116 384.2846 69.9116 384.2846 43.2197 397.2582 69.9116 400.2379 69.9116 413.2112 43.2197 413.2112 69.9116 421.0948 69.9116 421.0948 25.218 413.5216 25.218 398.7479 54.8895" style="fill:#F4F6F9;"/><path d="M448.8719,37.9433c-2.4626-1.655-5.4522-2.4829-8.9695-2.4829-3.3107,0-6.2386.7502-8.7835,2.2502-2.5452,1.5004-4.5421,3.6055-5.9902,6.316-1.4487,2.711-2.1728,5.8972-2.1728,9.5596,0,3.3521.7397,6.3265,2.2192,8.9232,1.4791,2.5969,3.5276,4.6351,6.1455,6.1143,2.6172,1.4789,5.6434,2.2191,9.0782,2.2191,3.228,0,6.2022-.8486,8.9232-2.5452,2.7207-1.6962,4.7122-4.076,5.9745-7.1385l-8.4421-2.4208c-.6208,1.3657-1.5207,2.4106-2.7002,3.1347-1.1793.7245-2.597,1.0862-4.252,1.0862-2.6279,0-4.6198-.8535-5.9749-2.5605-.9915-1.2488-1.6163-2.8809-1.8823-4.8884h23.5308c.3516-4.0551-.0621-7.5832-1.2416-10.5836-1.1793-2.9998-3.0004-5.3276-5.4625-6.9834ZM440.2748,42.7852c2.4621,0,4.2365.7502,5.3228,2.2502.7138.986,1.1882,2.3934,1.433,4.2055h-14.757c.3316-1.5476.8777-2.8315,1.654-3.8331,1.3551-1.7483,3.4709-2.6226,6.3473-2.6226Z" style="fill:#F4F6F9;"/><path d="M480.4347,37.4759c-2.0865-1.3438-4.6115-2.0157-7.572-2.0157-3.2073,0-5.9999.7664-8.3804,2.2966-2.3779,1.5328-4.2256,3.6272-5.5405,6.2859-1.3123,2.6588-1.9711,5.6954-1.9711,9.11,0,3.3516.6483,6.3621,1.9422,9.0313,1.2914,2.6692,3.097,4.7794,5.4146,6.3306,2.3176,1.5511,5.0182,2.328,8.1022,2.328,3.3307,0,6.1127-.7769,8.3489-2.328.2441-.1706.483-.3464.7139-.5328v1.929h7.4487V25.3449l-8.5064,1.6588v10.4722ZM480.7471,58.4911c-.4987,1.5302-1.3098,2.7191-2.4383,3.5669-1.126.8503-2.6325,1.2729-4.5144,1.2729-1.8214,0-3.3122-.454-4.4696-1.3648-1.1602-.9107-2.0184-2.1364-2.5774-3.6771-.5564-1.5433-.8373-3.2545-.8373-5.1364,0-1.8635.2887-3.5642.8687-5.1075.58-1.5406,1.4751-2.7716,2.685-3.6928,1.21-.9213,2.7585-1.3806,4.6403-1.3806,1.7585,0,3.181.4251,4.2676,1.2729,1.0865.8478,1.8766,2.0367,2.3753,3.5695.496,1.5302.7454,3.3097.7454,5.3385,0,2.0262-.2493,3.8057-.7454,5.3384Z" style="fill:#F4F6F9;"/><rect x="493.2853" y="25.218" width="8.4421" height="7.4489" style="fill:#F4F6F9;"/><rect x="493.2853" y="36.3916" width="8.4421" height="33.52" style="fill:#F4F6F9;"/><path d="M532.826,41.5437c-1.1793-2.2348-2.9173-3.807-5.2141-4.7177-2.2968-.9104-4.9247-1.3657-7.8835-1.3657-4.0349,0-7.2213.8689-9.5594,2.6072-2.3383,1.738-3.9315,3.9935-4.7797,6.7661l7.6353,2.4208c.5377-1.5309,1.4789-2.5964,2.8243-3.197,1.3448-.5997,2.6382-.8999,3.8795-.8999,2.2347,0,3.8277.4655,4.7799,1.3967.7449.7291,1.1884,1.7927,1.3502,3.1686l-4.0504.6022c-2.1727.3212-4.1179.6572-5.8351,1.0089-1.7175.3522-3.1967.7556-4.4382,1.2105-1.8001.6624-3.2331,1.4848-4.2986,2.4673-1.066.9832-1.8365,2.1158-2.3124,3.3986-.4762,1.2831-.7138,2.7003-.7138,4.2522,0,1.8621.4293,3.5643,1.2882,5.1055.8584,1.5417,2.1207,2.773,3.7864,3.6934,1.6653.9204,3.6983,1.3812,6.0989,1.3812,2.8965,0,5.2917-.5021,7.1849-1.5053,1.4931-.7913,2.9042-1.9781,4.2365-3.548v4.1222h7.3869v-20.4846c0-1.5309-.0621-2.9173-.1861-4.1589-.1243-1.2416-.5175-2.4829-1.1796-3.7244ZM524.9427,59.7314c-.2278.4762-.6572,1.066-1.288,1.769-.6315.7036-1.4797,1.3297-2.5452,1.8777-1.066.5485-2.3745.8225-3.9261.8225-.973,0-1.8109-.1446-2.5142-.4344-.7036-.2897-1.2467-.7087-1.6293-1.257-.3832-.548-.5742-1.2052-.5742-1.971,0-.5585.1187-1.0655.3568-1.5207.2379-.455.6102-.874,1.1175-1.2572.5067-.3824,1.1739-.7395,2.0018-1.0706.7241-.2686,1.5622-.517,2.5142-.7449.9514-.2276,2.2035-.4811,3.7554-.7604.9921-.1786,2.2008-.3878,3.5822-.6213-.0172.5898-.0461,1.2458-.0904,1.9869-.0728,1.2103-.326,2.2709-.7605,3.1813Z" style="fill:#F4F6F9;"/><path d="M190.9299,27.0798l-8.4434,1.6456v7.6665h-12.4177v-9.3121l-8.4434,1.6456v7.6665h-5.7113v6.517h5.7113s.0208,16.5901.0629,18.1728c.0394,1.5826.4751,3.139,1.3019,4.6718.9106,1.6351,2.2413,2.8188,3.9894,3.5537,1.7479.7323,3.7347,1.126,5.9579,1.1785,2.2256.0525,4.496-.1391,6.8135-.5748v-7.0129c-1.9868.2677-3.7979.3517-5.4304.2468-1.635-.1024-2.824-.7428-3.5695-1.9239-.3937-.6194-.6062-1.454-.6377-2.4986-.0316-1.0446-.0446-2.2178-.0446-3.5223v-7.6349c0-3.1548-4.8872-4.6561-4.8872-4.6561h17.3049s.0208,16.5901.0629,18.1728c.0394,1.5826.4751,3.139,1.3019,4.6718.9106,1.6351,2.2413,2.8188,3.9894,3.5537,1.7479.7323,3.7347,1.126,5.9579,1.1785,2.2256.0525,4.496-.1391,6.8134-.5748v-7.0129c-1.9868.2677-3.7977.3517-5.4304.2468-1.635-.1024-2.824-.7428-3.5695-1.9239-.3937-.6194-.6062-1.454-.6377-2.4986-.0316-1.0446-.0446-2.2178-.0446-3.5223v-7.6349c0-3.1548-4.8871-4.6561-4.8871-4.6561h14.5692v-6.517h-9.6821v-9.3121Z" style="fill:#F4F6F9;"/><path d="M281.1213,27.0798l-8.4434,1.6456v7.6665h-5.7112v6.517h5.7112s.0209,16.5901.0629,18.1728c.0394,1.5826.4751,3.139,1.3018,4.6718.9108,1.6351,2.2414,2.8188,3.9894,3.5537,1.7479.7323,3.7348,1.126,5.9578,1.1785,2.2256.0525,4.496-.1391,6.8135-.5748v-7.0129c-1.9868.2677-3.7977.3517-5.4303.2468-1.6351-.1024-2.824-.7428-3.5695-1.9239-.3937-.6194-.6062-1.454-.6377-2.4986-.0316-1.0446-.0446-2.2178-.0446-3.5223v-7.6349c0-3.1548-4.887-4.6561-4.887-4.6561h14.5692v-6.517h-9.6821v-9.3121Z" style="fill:#F4F6F9;"/></g></g></svg>